<svg width="148" height="20" viewBox="0 0 148 20" fill="none" xmlns="http://www.w3.org/2000/svg">
<g clip-path="url(#clip0_22_4183)">
<path d="M77.5396 3.86621L77.7935 6.96582L77.9595 6.99414C78.3654 6.06967 78.9956 5.31449 79.856 4.72754C80.6517 4.18494 81.5213 3.90166 82.4585 3.86621H83.8872V5.47656H82.4595C80.989 5.4766 79.8403 6.01434 79.0327 7.05762C78.2291 8.09595 77.8287 9.42778 77.8286 11.0459V19.5654H76.2114V3.86621H77.5396Z" fill="white" stroke="#8A8A8A" stroke-width="0.173913"/>
<path d="M64.2153 3.51758C65.5727 3.51758 66.8477 3.89307 68.0405 4.64062C69.233 5.38805 70.0989 6.35868 70.6401 7.55762L70.8062 7.52734L71.0415 3.86523H72.355V14.1641L72.3599 14.1777L74.2827 19.5605H72.5718L71.0776 15.3594L70.9956 15.1289L70.9136 15.3594C70.4394 16.6923 69.5739 17.7816 68.314 18.6318C67.0581 19.4821 65.6442 19.9053 64.2153 19.9053C62.7848 19.9052 61.4617 19.5373 60.2495 18.8018C59.0363 18.0657 58.073 17.0725 57.355 15.8252C56.6376 14.5793 56.2808 13.1824 56.2808 11.709C56.2808 10.2364 56.6413 8.87166 57.355 7.61328C58.069 6.35427 59.0326 5.35708 60.2495 4.62109C61.4659 3.88554 62.7849 3.51765 64.2153 3.51758ZM63.9438 5.07129C62.9596 5.11189 61.9838 5.40872 61.1421 5.91602C60.131 6.52395 59.3348 7.35471 58.7466 8.40723C58.1784 9.42792 57.8941 10.5065 57.894 11.7129C57.894 12.9188 58.1779 14.0297 58.7466 15.0391C59.3309 16.0757 60.1269 16.8991 61.1255 17.5068C61.8587 17.9543 62.6945 18.2365 63.5513 18.3301L63.9194 18.3594C65.0887 18.4088 66.1948 18.1515 67.2319 17.5781L67.438 17.459C68.4725 16.8435 69.3002 16.0051 69.9204 14.9531L69.9321 14.9326V14.9268C70.4484 14.0402 70.7541 13.0311 70.7983 12.0049C70.8552 10.7121 70.5461 9.51145 69.8804 8.40527C69.3445 7.51268 68.6531 6.78013 67.812 6.20703L67.4419 5.97168C66.3499 5.32345 65.1833 5.02264 63.9438 5.07129Z" fill="white" stroke="#8A8A8A" stroke-width="0.173913"/>
<path d="M55.4131 3.86572V5.50146L45.0039 17.812L44.8828 17.9556H56.1709V19.5649H42.7129V17.9683L53.1221 5.62256L53.2432 5.47998H43.4697V3.86572H55.4131Z" fill="white" stroke="#8A8A8A" stroke-width="0.173913"/>
<path d="M34.3638 3.52612C35.7946 3.52612 37.1217 3.8939 38.3462 4.62964C39.5716 5.36583 40.551 6.36279 41.2769 7.62183C42.0024 8.88023 42.3667 10.245 42.3667 11.7175C42.3667 13.19 42.0023 14.5549 41.2769 15.8132C40.551 17.0723 39.5717 18.0702 38.3462 18.8064C37.1216 19.5421 35.8144 19.9089 34.3638 19.9089C32.913 19.9089 31.5783 19.5418 30.3501 18.8064C29.1209 18.0704 28.1489 17.0731 27.4351 15.8142C26.7175 14.5558 26.3608 13.1905 26.3608 11.7175C26.3609 10.245 26.7215 8.88023 27.4351 7.62183C28.153 6.36282 29.1248 5.36573 30.3501 4.62964C31.5742 3.89419 32.9329 3.52616 34.3638 3.52612ZM34.3638 5.07202C33.2022 5.07206 32.1324 5.37196 31.1528 5.97632V5.97729C30.3005 6.50553 29.5995 7.19165 29.0571 8.03882L28.8345 8.41187C28.2622 9.43266 27.9781 10.5111 27.978 11.7175C27.978 12.9237 28.266 14.0345 28.8345 15.0437C29.4025 16.0522 30.1746 16.8589 31.1528 17.4626C32.1286 18.0672 33.2022 18.3679 34.3638 18.3679C35.5257 18.3679 36.596 18.0671 37.5757 17.4626C38.5536 16.859 39.3288 16.0522 39.897 15.0437C40.4655 14.0303 40.7495 12.8995 40.7495 11.7175C40.7495 10.5352 40.4661 9.43271 39.8979 8.41187H39.897C39.3249 7.39159 38.554 6.58012 37.5757 5.97632H37.5747C36.5993 5.37614 35.5257 5.07202 34.3638 5.07202Z" fill="white" stroke="#8A8A8A" stroke-width="0.173913"/>
<path d="M121.945 3.52271C124.577 3.52282 126.843 4.58974 128.744 6.73071L127.558 7.8811C126.769 6.99267 125.937 6.30466 125.068 5.81958C124.171 5.31938 123.083 5.06866 121.945 5.0686C120.803 5.0686 119.756 5.36906 118.8 5.97388L118.792 5.97876L118.787 5.98364C117.837 6.58679 117.081 7.39142 116.511 8.39575C115.938 9.40531 115.655 10.5362 115.655 11.718C115.655 12.9005 115.943 14.003 116.511 15.0237V15.0247C117.083 16.0444 117.842 16.8553 118.796 17.4592C119.752 18.0639 120.774 18.3644 121.94 18.3645C123.103 18.3645 124.14 18.1089 125.048 17.5969C125.933 17.0999 126.766 16.4037 127.558 15.5149L128.743 16.6643C126.818 18.8262 124.553 19.9054 121.945 19.9055C120.514 19.9055 119.191 19.5383 117.979 18.803H117.978C116.761 18.067 115.802 17.0703 115.1 15.8118C114.398 14.5531 114.045 13.2072 114.045 11.7141C114.045 10.314 114.353 9.02004 114.972 7.83716L115.1 7.60181C115.802 6.35509 116.761 5.36224 117.978 4.62622C119.194 3.8906 120.514 3.52271 121.945 3.52271Z" fill="white" stroke="#8A8A8A" stroke-width="0.173913"/>
<path d="M136.958 3.52612C138.388 3.52612 139.715 3.89396 140.94 4.62964C142.165 5.36582 143.145 6.36279 143.871 7.62183C144.596 8.88022 144.961 10.245 144.961 11.7175C144.961 13.1901 144.596 14.5549 143.871 15.8132C143.141 17.0726 142.165 18.0703 140.94 18.8064C139.715 19.542 138.412 19.9089 136.958 19.9089C135.503 19.9089 134.164 19.5417 132.94 18.8064C131.711 18.0704 130.743 17.0733 130.025 15.8142C129.307 14.5558 128.951 13.1905 128.951 11.7175C128.951 10.245 129.311 8.88023 130.025 7.62183C130.743 6.36282 131.715 5.36573 132.94 4.62964C134.168 3.89418 135.527 3.52618 136.958 3.52612ZM136.961 5.07202C135.8 5.07209 134.73 5.3719 133.75 5.97632C132.772 6.58006 131.996 7.39117 131.428 8.41187C130.86 9.43258 130.576 10.5111 130.576 11.7175C130.576 12.9234 130.86 14.0344 131.428 15.0437H131.429C132.001 16.0519 132.772 16.8589 133.75 17.4626C134.726 18.0672 135.8 18.3678 136.961 18.3679C138.123 18.3679 139.194 18.0671 140.173 17.4626C141.147 16.859 141.923 16.0522 142.491 15.0437C143.063 14.0302 143.348 12.8995 143.348 11.7175C143.348 10.535 143.06 9.43253 142.492 8.41187C141.924 7.3913 141.152 6.58015 140.173 5.97632C139.198 5.37594 138.124 5.07202 136.961 5.07202Z" fill="white" stroke="#8A8A8A" stroke-width="0.173913"/>
<path d="M1.75098 3.86572L12.123 16.1567L12.1895 16.2358L12.2559 16.1567L22.624 3.86963H24.2871V19.5688H22.6699V6.40869L22.5166 6.59033L14.3223 16.2847C13.211 17.599 11.1835 17.599 10.0723 16.2847L1.85742 6.57373L1.7041 6.39307V19.5649H0.0869141V3.86572H1.75098Z" fill="white" stroke="#8A8A8A" stroke-width="0.173913"/>
<path d="M87.8979 0.0869141V3.86621H94.1968V5.48047H87.8979V17.9521H94.1968V19.5654H89.063C87.5283 19.5654 86.2808 18.3206 86.2808 16.7891V0.0869141H87.8979Z" fill="white" stroke="#8A8A8A" stroke-width="0.173913"/>
<path d="M146.439 3.52271C147.161 3.52276 147.746 4.10702 147.747 4.82739C147.747 5.54782 147.161 6.13203 146.439 6.13208C145.717 6.13208 145.131 5.54785 145.131 4.82739C145.131 4.10699 145.717 3.52271 146.439 3.52271Z" fill="white" stroke="#8A8A8A" stroke-width="0.173913"/>
<path d="M106.542 3.86914V5.4834H100.525L100.645 5.62598L109.32 15.9121L109.389 15.9941L109.456 15.9092C109.494 15.8597 109.539 15.8143 109.587 15.7637C109.611 15.739 109.635 15.7129 109.66 15.6855L109.73 15.5986C110.313 14.7766 110.761 13.8639 110.871 12.8359H112.488C112.349 13.8881 112.022 14.8807 111.491 15.8135L111.458 15.8711L111.459 15.873C111.182 16.3553 110.855 16.7896 110.5 17.1943L110.45 17.251L110.499 17.3076L112.405 19.5684H110.252L109.281 18.4238L109.228 18.3623L109.164 18.4092C108.97 18.5498 108.785 18.687 108.584 18.8086C107.332 19.5599 105.962 19.9279 104.467 19.9121H104.466C103.151 19.9002 101.844 19.5402 100.703 18.8799H100.702C99.4214 18.1359 98.4107 17.1154 97.6733 15.8174C96.9557 14.5592 96.5991 13.1818 96.5991 11.6846V11.1201H103.107L102.986 10.9766L98.3862 5.53711V3.86914H106.542ZM98.2778 12.7617C98.4402 13.8064 98.8178 14.7507 99.4106 15.5977C100.003 16.4445 100.755 17.118 101.66 17.6162C102.569 18.1149 103.509 18.3672 104.558 18.3672C105.607 18.3672 106.583 18.1156 107.478 17.6162L107.769 17.4531H107.721C107.746 17.4349 107.772 17.4169 107.796 17.3984C107.899 17.3212 107.994 17.2457 108.094 17.1748L108.172 17.1201L108.111 17.0479L104.428 12.6924L104.402 12.6621H98.2622L98.2778 12.7617Z" fill="white" stroke="#8A8A8A" stroke-width="0.173913"/>
</g>
<defs>
<clipPath id="clip0_22_4183">
<rect width="148" height="20" fill="white"/>
</clipPath>
</defs>
</svg>
