<svg width="30" height="36" viewBox="0 0 30 36" fill="none" xmlns="http://www.w3.org/2000/svg">
<path d="M17.0776 29.9023C16.215 29.9023 15.3727 29.8128 14.5508 29.6338C13.737 29.4629 12.9557 29.2147 12.207 28.8892C12.6465 28.3765 13.0168 27.7865 13.3179 27.1191C13.8957 27.347 14.4979 27.522 15.1245 27.644C15.7593 27.7661 16.4103 27.8271 17.0776 27.8271C18.5181 27.8271 19.8649 27.5586 21.1182 27.0215C22.3714 26.4844 23.4741 25.7438 24.4263 24.7998C25.3784 23.8477 26.119 22.745 26.6479 21.4917C27.1851 20.2384 27.4536 18.8916 27.4536 17.4512C27.4455 16.0107 27.1729 14.6639 26.6357 13.4106C26.1068 12.1574 25.3662 11.0547 24.4141 10.1025C23.4619 9.15039 22.3592 8.40983 21.106 7.88086C19.8527 7.34375 18.5059 7.0752 17.0654 7.0752C15.7471 7.0752 14.506 7.30306 13.3423 7.75879C12.1785 8.20638 11.1369 8.83708 10.2173 9.65088C9.29769 10.4565 8.54492 11.4006 7.95898 12.4829C7.37305 13.5653 6.99463 14.7412 6.82373 16.0107C6.49821 15.9701 6.13607 15.9619 5.7373 15.9863C5.34668 16.0026 5.00488 16.0392 4.71191 16.0962C4.88281 14.55 5.3182 13.1055 6.01807 11.7627C6.72607 10.4199 7.63753 9.24398 8.75244 8.23486C9.87549 7.21761 11.145 6.42415 12.561 5.85449C13.9771 5.28483 15.4785 5 17.0654 5C18.7663 5 20.3654 5.32552 21.8628 5.97656C23.3683 6.6276 24.6948 7.52686 25.8423 8.67432C26.9897 9.82178 27.889 11.1483 28.54 12.6538C29.1992 14.1512 29.5288 15.7503 29.5288 17.4512C29.5288 19.152 29.2033 20.7552 28.5522 22.2607C27.9012 23.7581 27.002 25.0806 25.8545 26.228C24.707 27.3755 23.3805 28.2747 21.875 28.9258C20.3776 29.5768 18.7785 29.9023 17.0776 29.9023ZM17.0532 13.3252C17.6392 13.3252 18.2739 13.3008 18.9575 13.252C19.6411 13.195 20.2922 13.1299 20.9106 13.0566C21.5373 12.9834 22.0459 12.9183 22.4365 12.8613C22.4935 12.8532 22.5464 12.8451 22.5952 12.8369C22.6522 12.8206 22.7091 12.8125 22.7661 12.8125C22.9126 12.8125 23.0509 12.8735 23.1812 12.9956C23.3195 13.1177 23.3887 13.2886 23.3887 13.5083C23.3887 13.8745 23.2178 14.1024 22.876 14.1919C22.7783 14.2244 22.5586 14.2651 22.2168 14.314C21.8831 14.3628 21.5088 14.4157 21.0938 14.4727C20.6868 14.5215 20.3166 14.5703 19.9829 14.6191C19.6493 14.6598 19.4377 14.6883 19.3481 14.7046C18.9819 14.786 18.7988 15.0464 18.7988 15.4858C18.7988 15.6974 18.7988 16.0311 18.7988 16.4868C18.807 16.9344 18.8192 17.4023 18.8354 17.8906C18.8599 18.3708 18.8965 18.7614 18.9453 19.0625C18.9697 19.2497 19.0267 19.5508 19.1162 19.9658C19.2139 20.3809 19.3197 20.8447 19.4336 21.3574C19.5557 21.862 19.6737 22.3543 19.7876 22.8345C19.9015 23.3065 19.9951 23.7093 20.0684 24.043C20.1497 24.3685 20.1945 24.5475 20.2026 24.5801C20.2677 24.8161 20.2352 25.0277 20.105 25.2148C19.9829 25.3939 19.8039 25.4834 19.5679 25.4834C19.2179 25.4834 18.986 25.2677 18.8721 24.8364C18.8151 24.6167 18.7297 24.2871 18.6157 23.8477C18.5099 23.4082 18.3919 22.9403 18.2617 22.4438C18.1315 21.9393 18.0094 21.4795 17.8955 21.0645C17.7897 20.6413 17.7124 20.3361 17.6636 20.1489C17.5741 19.8885 17.4886 19.7054 17.4072 19.5996C17.3258 19.4857 17.2078 19.4287 17.0532 19.4287C16.9067 19.4287 16.7928 19.4857 16.7114 19.5996C16.63 19.7054 16.5527 19.8885 16.4795 20.1489C16.4144 20.3361 16.3249 20.6413 16.2109 21.0645C16.097 21.4795 15.9749 21.9393 15.8447 22.4438C15.7227 22.9403 15.6047 23.4082 15.4907 23.8477C15.3849 24.2871 15.3035 24.6167 15.2466 24.8364C15.1326 25.2677 14.9007 25.4834 14.5508 25.4834C14.3066 25.4834 14.1235 25.3939 14.0015 25.2148C13.8794 25.0277 13.8509 24.8161 13.916 24.5801C13.9242 24.5475 13.9648 24.3685 14.0381 24.043C14.1195 23.7093 14.2171 23.3065 14.3311 22.8345C14.445 22.3543 14.5589 21.862 14.6729 21.3574C14.7949 20.8447 14.9007 20.3809 14.9902 19.9658C15.0798 19.5508 15.1408 19.2497 15.1733 19.0625C15.2222 18.7614 15.2588 18.3708 15.2832 17.8906C15.3076 17.4023 15.3198 16.9344 15.3198 16.4868C15.328 16.0311 15.332 15.6974 15.332 15.4858C15.3158 15.0382 15.1245 14.7778 14.7583 14.7046C14.6769 14.6883 14.4694 14.6598 14.1357 14.6191C13.8021 14.5703 13.4277 14.5215 13.0127 14.4727C12.6058 14.4157 12.2314 14.3628 11.8896 14.314C11.556 14.2651 11.3403 14.2244 11.2427 14.1919C10.9009 14.1105 10.73 13.8826 10.73 13.5083C10.73 13.2886 10.7951 13.1177 10.9253 12.9956C11.0555 12.8735 11.1979 12.8125 11.3525 12.8125C11.4095 12.8125 11.4624 12.8206 11.5112 12.8369C11.5682 12.8451 11.6252 12.8532 11.6821 12.8613C12.0728 12.9183 12.5814 12.9834 13.208 13.0566C13.8346 13.1299 14.4897 13.195 15.1733 13.252C15.8569 13.3008 16.4836 13.3252 17.0532 13.3252ZM17.0532 12.5317C16.6138 12.5317 16.2394 12.3771 15.9302 12.0679C15.6209 11.7505 15.4663 11.3761 15.4663 10.9448C15.4663 10.5054 15.6209 10.131 15.9302 9.82178C16.2394 9.51253 16.6138 9.35791 17.0532 9.35791C17.4927 9.35791 17.867 9.51253 18.1763 9.82178C18.4855 10.131 18.6401 10.5054 18.6401 10.9448C18.6401 11.3761 18.4855 11.7505 18.1763 12.0679C17.867 12.3771 17.4927 12.5317 17.0532 12.5317ZM6.20117 30.0366C5.35482 30.0366 4.55729 29.8739 3.80859 29.5483C3.0599 29.231 2.40072 28.7874 1.83105 28.2178C1.26139 27.6481 0.813802 26.9889 0.488281 26.2402C0.16276 25.4915 0 24.6899 0 23.8354C0 22.981 0.16276 22.1834 0.488281 21.4429C0.813802 20.6942 1.26139 20.035 1.83105 19.4653C2.40072 18.8875 3.0599 18.4399 3.80859 18.1226C4.55729 17.797 5.35482 17.6343 6.20117 17.6343C7.05566 17.6343 7.85726 17.797 8.60596 18.1226C9.35465 18.4399 10.0138 18.8835 10.5835 19.4531C11.1532 20.0228 11.5967 20.682 11.9141 21.4307C12.2396 22.1794 12.4023 22.981 12.4023 23.8354C12.4023 24.6818 12.2396 25.4793 11.9141 26.228C11.5885 26.9767 11.1369 27.6359 10.5591 28.2056C9.98942 28.7752 9.33024 29.2228 8.58154 29.5483C7.83285 29.8739 7.03939 30.0366 6.20117 30.0366ZM2.62451 24.4336C2.62451 24.6615 2.68148 24.8364 2.79541 24.9585C2.90934 25.0724 3.07617 25.1294 3.2959 25.1294H4.21143C4.24398 25.1294 4.27246 25.1416 4.29688 25.166L5.66406 26.4722C5.81055 26.6024 5.95296 26.6675 6.09131 26.6675C6.1971 26.6675 6.28662 26.6309 6.35986 26.5576C6.43311 26.4925 6.46973 26.4071 6.46973 26.3013V21.3452C6.46973 21.2476 6.43311 21.1662 6.35986 21.1011C6.28662 21.0278 6.1971 20.9912 6.09131 20.9912C5.95296 20.9912 5.81055 21.0563 5.66406 21.1865L4.29688 22.4927C4.27246 22.5252 4.24398 22.5415 4.21143 22.5415H3.2959C3.07617 22.5415 2.90934 22.5985 2.79541 22.7124C2.68148 22.8263 2.62451 23.0013 2.62451 23.2373V24.4336ZM7.51953 25.2881C7.60091 25.3532 7.6945 25.3776 7.80029 25.3613C7.90609 25.3451 7.99154 25.2881 8.05664 25.1904C8.34147 24.8161 8.48389 24.3604 8.48389 23.8232C8.48389 23.2943 8.34554 22.8426 8.06885 22.4683C8.00374 22.3787 7.91829 22.3258 7.8125 22.3096C7.71484 22.2852 7.62126 22.2974 7.53174 22.3462C7.43408 22.4113 7.37712 22.5008 7.36084 22.6147C7.3527 22.7287 7.38525 22.8304 7.4585 22.9199C7.62126 23.1559 7.70264 23.457 7.70264 23.8232C7.70264 24.1895 7.62126 24.4946 7.4585 24.7388C7.2876 24.9504 7.30794 25.1335 7.51953 25.2881ZM8.76465 26.1426C8.9681 26.2728 9.1512 26.2362 9.31396 26.0327C9.75342 25.4142 9.97314 24.6777 9.97314 23.8232C9.97314 22.9525 9.74935 22.216 9.30176 21.6138C9.14714 21.4266 8.97217 21.394 8.77686 21.5161C8.68734 21.5812 8.63444 21.6667 8.61816 21.7725C8.60189 21.8701 8.6263 21.9678 8.69141 22.0654C8.8623 22.3096 8.98844 22.5863 9.06982 22.8955C9.15934 23.1966 9.2041 23.5059 9.2041 23.8232C9.2041 24.1569 9.15934 24.4743 9.06982 24.7754C8.98844 25.0765 8.86637 25.3491 8.70361 25.5933C8.63851 25.6746 8.61003 25.7682 8.61816 25.874C8.63444 25.9798 8.68327 26.0693 8.76465 26.1426Z" fill="white"/>
</svg>
