<svg width="15" height="29" viewBox="0 0 15 29" fill="none" xmlns="http://www.w3.org/2000/svg">
<path d="M1.02539 23.0298C0.708008 23.0298 0.455729 22.9443 0.268555 22.7734C0.0895182 22.5944 0 22.3503 0 22.041C0 21.8538 0.0447591 21.6341 0.134277 21.3818L5.85938 6.11084C6.12793 5.37028 6.64062 5 7.39746 5C7.78809 5 8.10954 5.09359 8.36182 5.28076C8.6141 5.46794 8.81348 5.7487 8.95996 6.12305L14.6851 21.3696C14.7746 21.6219 14.8193 21.8416 14.8193 22.0288C14.8193 22.3381 14.7217 22.5822 14.5264 22.7612C14.3392 22.9403 14.0828 23.0298 13.7573 23.0298C13.4399 23.0298 13.1917 22.9606 13.0127 22.8223C12.8337 22.6839 12.6872 22.4438 12.5732 22.1021L10.9985 17.793H3.79639L2.22168 22.1021C2.10775 22.4438 1.96126 22.6839 1.78223 22.8223C1.60319 22.9606 1.35091 23.0298 1.02539 23.0298ZM4.39453 15.9375H10.3882L7.42188 7.72217H7.36084L4.39453 15.9375Z" fill="white"/>
</svg>
