<svg width="25" height="35" viewBox="0 0 25 35" fill="none" xmlns="http://www.w3.org/2000/svg">
<path d="M19.1284 21.5771C19.6167 21.5771 20.0968 21.5487 20.5688 21.4917C21.049 21.4347 21.5007 21.3574 21.9238 21.2598C22.3551 21.1621 22.7376 21.0441 23.0713 20.9058C23.2178 20.8569 23.3358 20.8244 23.4253 20.8081C23.5148 20.7918 23.6084 20.7837 23.7061 20.7837C23.8932 20.7837 24.0723 20.861 24.2432 21.0156C24.4222 21.1702 24.5117 21.3737 24.5117 21.626C24.5117 21.6911 24.5036 21.7887 24.4873 21.9189C24.471 22.041 24.4222 22.1834 24.3408 22.3462C23.6247 23.868 22.6766 25.1742 21.4966 26.2646C20.3166 27.3633 18.9819 28.2056 17.4927 28.7915C16.0034 29.3856 14.4368 29.6826 12.793 29.6826C11.027 29.6826 9.37093 29.349 7.82471 28.6816C6.27848 28.0225 4.91943 27.1069 3.74756 25.9351C2.57568 24.7632 1.65609 23.4041 0.98877 21.8579C0.32959 20.3117 0 18.6556 0 16.8896C0 15.1481 0.32959 13.5002 0.98877 11.9458C1.65609 10.3914 2.57161 9.02832 3.73535 7.85645C4.90723 6.67643 6.24593 5.78125 7.75146 5.1709C7.92236 5.09766 8.06478 5.0529 8.17871 5.03662C8.29264 5.01221 8.37402 5 8.42285 5C8.68327 5 8.89486 5.09766 9.05762 5.29297C9.22852 5.48014 9.31396 5.67546 9.31396 5.87891C9.31396 6.00098 9.29769 6.11491 9.26514 6.2207C9.24072 6.3265 9.18376 6.46891 9.09424 6.64795C8.86637 7.0874 8.67106 7.69368 8.5083 8.4668C8.35368 9.23991 8.27637 10.0903 8.27637 11.0181C8.27637 13.1909 8.71175 15.0667 9.58252 16.6455C10.4614 18.2243 11.7106 19.4409 13.3301 20.2954C14.9577 21.1499 16.8905 21.5771 19.1284 21.5771ZM1.9165 16.8042C1.9165 18.383 2.18913 19.8397 2.73438 21.1743C3.28776 22.509 4.0568 23.6727 5.0415 24.6655C6.03434 25.6502 7.19401 26.4152 8.52051 26.9604C9.85514 27.5138 11.3078 27.7905 12.8784 27.7905C14.1805 27.7905 15.4215 27.5911 16.6016 27.1924C17.7897 26.8018 18.8599 26.2362 19.812 25.4956C20.7723 24.755 21.5617 23.8761 22.1802 22.8589C21.6756 23.0379 21.1507 23.1681 20.6055 23.2495C20.0602 23.3228 19.4743 23.3594 18.8477 23.3594C16.2516 23.3594 14.0259 22.8752 12.1704 21.9067C10.3231 20.9383 8.90706 19.5467 7.92236 17.7319C6.9458 15.909 6.45752 13.728 6.45752 11.189C6.45752 10.4891 6.50635 9.82585 6.604 9.19922C6.7098 8.57259 6.86035 7.97445 7.05566 7.40479C6.00586 8.08024 5.0944 8.91032 4.32129 9.89502C3.55632 10.8716 2.96224 11.9539 2.53906 13.1421C2.12402 14.3221 1.9165 15.5428 1.9165 16.8042Z" fill="white"/>
</svg>
