<svg width="25" height="35" viewBox="0 0 25 35" fill="none" xmlns="http://www.w3.org/2000/svg">
<path d="M12.4512 29.9023C10.734 29.9023 9.12272 29.5768 7.61719 28.9258C6.11165 28.2829 4.78923 27.3918 3.6499 26.2524C2.51058 25.1131 1.6154 23.7907 0.964355 22.2852C0.321452 20.7796 0 19.1683 0 17.4512C0 15.734 0.321452 14.1227 0.964355 12.6172C1.6154 11.1117 2.51058 9.78923 3.6499 8.6499C4.78923 7.50244 6.11165 6.60726 7.61719 5.96436C9.12272 5.32145 10.734 5 12.4512 5C14.1683 5 15.7796 5.32145 17.2852 5.96436C18.7907 6.60726 20.1131 7.50244 21.2524 8.6499C22.3918 9.78923 23.2829 11.1117 23.9258 12.6172C24.5768 14.1227 24.9023 15.734 24.9023 17.4512C24.9023 19.1683 24.5768 20.7796 23.9258 22.2852C23.2829 23.7907 22.3918 25.1131 21.2524 26.2524C20.1131 27.3918 18.7907 28.2829 17.2852 28.9258C15.7796 29.5768 14.1683 29.9023 12.4512 29.9023ZM12.4512 27.8271C13.8835 27.8271 15.2262 27.5586 16.4795 27.0215C17.7327 26.4844 18.8354 25.7397 19.7876 24.7876C20.7397 23.8354 21.4844 22.7327 22.0215 21.4795C22.5586 20.2262 22.8271 18.8835 22.8271 17.4512C22.8271 16.0189 22.5586 14.6761 22.0215 13.4229C21.4844 12.1615 20.7397 11.0588 19.7876 10.1147C18.8354 9.1626 17.7327 8.41797 16.4795 7.88086C15.2262 7.34375 13.8835 7.0752 12.4512 7.0752C11.0189 7.0752 9.67611 7.34375 8.42285 7.88086C7.1696 8.41797 6.06689 9.1626 5.11475 10.1147C4.1626 11.0588 3.41797 12.1615 2.88086 13.4229C2.34375 14.6761 2.0752 16.0189 2.0752 17.4512C2.0752 18.8835 2.34375 20.2262 2.88086 21.4795C3.41797 22.7327 4.1626 23.8354 5.11475 24.7876C6.06689 25.7397 7.1696 26.4844 8.42285 27.0215C9.67611 27.5586 11.0189 27.8271 12.4512 27.8271ZM8.99658 22.1997C8.69548 22.1997 8.47168 22.1265 8.3252 21.98C8.18685 21.8335 8.11768 21.6423 8.11768 21.4062V13.4717C8.11768 13.2357 8.18685 13.0444 8.3252 12.8979C8.47168 12.7433 8.69548 12.666 8.99658 12.666H10.2051C10.5062 12.666 10.7259 12.7433 10.8643 12.8979C11.0107 13.0444 11.084 13.2357 11.084 13.4717V21.4062C11.084 21.6423 11.0107 21.8335 10.8643 21.98C10.7259 22.1265 10.5062 22.1997 10.2051 22.1997H8.99658ZM14.7095 22.1997C14.4084 22.1997 14.1846 22.1265 14.0381 21.98C13.8916 21.8335 13.8184 21.6423 13.8184 21.4062V13.4717C13.8184 13.2357 13.8916 13.0444 14.0381 12.8979C14.1846 12.7433 14.4084 12.666 14.7095 12.666H15.9058C16.1987 12.666 16.4185 12.7433 16.5649 12.8979C16.7114 13.0444 16.7847 13.2357 16.7847 13.4717V21.4062C16.7847 21.6423 16.7114 21.8335 16.5649 21.98C16.4185 22.1265 16.1987 22.1997 15.9058 22.1997H14.7095Z" fill="white"/>
</svg>
