<svg width="10" height="29" viewBox="0 0 10 29" fill="none" xmlns="http://www.w3.org/2000/svg">
<path d="M0 22.9077C0 22.6147 0.0976562 22.3787 0.292969 22.1997C0.488281 22.0125 0.748698 21.9189 1.07422 21.9189H4.08936V13.4961H1.41602C1.09863 13.4961 0.838216 13.4025 0.634766 13.2153C0.439453 13.0282 0.341797 12.784 0.341797 12.4829C0.341797 12.1899 0.439453 11.9539 0.634766 11.7749C0.838216 11.5959 1.09863 11.5063 1.41602 11.5063H5.28564C5.60303 11.5063 5.85938 11.6081 6.05469 11.8115C6.25 12.0068 6.34766 12.2713 6.34766 12.605V21.9189H8.80127C9.12679 21.9189 9.38721 22.0125 9.58252 22.1997C9.77783 22.3787 9.87549 22.6147 9.87549 22.9077C9.87549 23.2088 9.77783 23.453 9.58252 23.6401C9.38721 23.8192 9.12679 23.9087 8.80127 23.9087H1.07422C0.748698 23.9087 0.488281 23.8192 0.292969 23.6401C0.0976562 23.453 0 23.2088 0 22.9077ZM3.02734 6.77002C3.02734 6.2736 3.19824 5.85449 3.54004 5.5127C3.88184 5.1709 4.29688 5 4.78516 5C5.27344 5 5.68441 5.1709 6.01807 5.5127C6.35986 5.85449 6.53076 6.2736 6.53076 6.77002C6.53076 7.2583 6.35986 7.67334 6.01807 8.01514C5.68441 8.35693 5.27344 8.52783 4.78516 8.52783C4.29688 8.52783 3.88184 8.35693 3.54004 8.01514C3.19824 7.67334 3.02734 7.2583 3.02734 6.77002Z" fill="white"/>
</svg>
