<svg width="13" height="26" viewBox="0 0 13 26" fill="none" xmlns="http://www.w3.org/2000/svg">
<path d="M0 14.3018C0 13.4082 0.166016 12.5708 0.498047 11.7896C0.834961 11.0083 1.29883 10.3223 1.88965 9.73145C2.48535 9.13574 3.17383 8.67188 3.95508 8.33984C4.73633 8.00293 5.57373 7.83447 6.46729 7.83447C6.69189 7.83447 6.91162 7.84668 7.12646 7.87109C7.34131 7.89062 7.5415 7.91992 7.72705 7.95898L5.78613 6.01807C5.73242 5.95947 5.69092 5.89355 5.66162 5.82031C5.63721 5.74707 5.625 5.67383 5.625 5.60059C5.625 5.42969 5.67871 5.28809 5.78613 5.17578C5.89844 5.05859 6.03516 5 6.19629 5C6.37695 5 6.521 5.05859 6.62842 5.17578L9.63867 8.2373C9.76562 8.36426 9.8291 8.51074 9.8291 8.67676C9.8291 8.75977 9.81445 8.83789 9.78516 8.91113C9.75586 8.98438 9.70703 9.05273 9.63867 9.11621L6.62109 12.1484C6.50391 12.2607 6.3623 12.3169 6.19629 12.3169C6.03516 12.3169 5.89844 12.2607 5.78613 12.1484C5.67871 12.0361 5.625 11.897 5.625 11.731C5.625 11.6528 5.63721 11.5796 5.66162 11.5112C5.68604 11.438 5.72998 11.3721 5.79346 11.3135L7.97607 9.14551C7.76123 9.09668 7.52441 9.0625 7.26562 9.04297C7.01172 9.01855 6.74561 9.00635 6.46729 9.00635C5.73975 9.00635 5.05615 9.14307 4.4165 9.4165C3.77686 9.68994 3.21289 10.0708 2.72461 10.5591C2.24121 11.0425 1.86279 11.604 1.58936 12.2437C1.31592 12.8833 1.1792 13.5669 1.1792 14.2944C1.1792 15.0269 1.31592 15.7129 1.58936 16.3525C1.86279 16.9922 2.24121 17.5537 2.72461 18.0371C3.21289 18.5205 3.77686 18.8989 4.4165 19.1724C5.05615 19.4458 5.73975 19.5825 6.46729 19.5825C7.19971 19.5825 7.88574 19.4458 8.52539 19.1724C9.16504 18.8989 9.72656 18.5205 10.21 18.0371C10.6934 17.5537 11.0718 16.9922 11.3452 16.3525C11.6187 15.7129 11.7554 15.0269 11.7554 14.2944C11.7554 14.1187 11.8066 13.9746 11.9092 13.8623C12.0117 13.7451 12.1509 13.6865 12.3267 13.6865C12.5073 13.6865 12.6538 13.7451 12.7661 13.8623C12.8784 13.9746 12.9346 14.1211 12.9346 14.3018C12.9346 15.1953 12.7661 16.0327 12.4292 16.814C12.0972 17.5952 11.6333 18.2837 11.0376 18.8794C10.4468 19.4702 9.76074 19.9316 8.97949 20.2637C8.19824 20.6006 7.36084 20.769 6.46729 20.769C5.57373 20.769 4.73633 20.6006 3.95508 20.2637C3.17383 19.9316 2.48535 19.4702 1.88965 18.8794C1.29883 18.2837 0.834961 17.5952 0.498047 16.814C0.166016 16.0327 0 15.1953 0 14.3018Z" fill="white"/>
</svg>
