<svg width="46" height="26" viewBox="0 0 46 26" fill="none" xmlns="http://www.w3.org/2000/svg">
<path d="M13.7163 20.2344C12.6584 20.2344 11.6696 20.0391 10.75 19.6484C9.8304 19.2497 9.02067 18.7044 8.3208 18.0127C7.62093 17.3128 7.07161 16.5031 6.67285 15.5835C6.28223 14.6558 6.08691 13.667 6.08691 12.6172C6.08691 11.5674 6.28223 10.5827 6.67285 9.66309C7.07161 8.74349 7.62093 7.93376 8.3208 7.23389C9.02067 6.53402 9.8304 5.98877 10.75 5.59814C11.6696 5.19938 12.6584 5 13.7163 5C14.7661 5 15.7508 5.19938 16.6704 5.59814C17.59 5.98877 18.3957 6.53402 19.0874 7.23389C19.7873 7.93376 20.3325 8.74349 20.7231 9.66309C21.1219 10.5827 21.3213 11.5674 21.3213 12.6172C21.3213 13.667 21.1219 14.6558 20.7231 15.5835C20.3325 16.5031 19.7873 17.3128 19.0874 18.0127C18.3957 18.7044 17.59 19.2497 16.6704 19.6484C15.7508 20.0391 14.7661 20.2344 13.7163 20.2344ZM13.7163 18.1714C14.4731 18.1714 15.1852 18.029 15.8525 17.7441C16.528 17.4512 17.118 17.0524 17.6226 16.5479C18.1353 16.0352 18.534 15.4451 18.8188 14.7778C19.1118 14.1024 19.2583 13.3822 19.2583 12.6172C19.2583 11.8522 19.1118 11.1361 18.8188 10.4688C18.534 9.79329 18.1353 9.20329 17.6226 8.69873C17.118 8.18604 16.528 7.78727 15.8525 7.50244C15.1852 7.20947 14.4731 7.06299 13.7163 7.06299C12.9432 7.06299 12.2189 7.20947 11.5435 7.50244C10.8761 7.78727 10.2861 8.18604 9.77344 8.69873C9.26888 9.20329 8.87012 9.79329 8.57715 10.4688C8.29232 11.1361 8.1499 11.8522 8.1499 12.6172C8.1499 13.3822 8.29232 14.1024 8.57715 14.7778C8.87012 15.4533 9.26888 16.0474 9.77344 16.5601C10.2861 17.0646 10.8761 17.4593 11.5435 17.7441C12.2189 18.029 12.9432 18.1714 13.7163 18.1714ZM32.3076 20.2344C31.2497 20.2344 30.2609 20.0391 29.3413 19.6484C28.4217 19.2497 27.612 18.7044 26.9121 18.0127C26.2122 17.3128 25.6629 16.5031 25.2642 15.5835C24.8735 14.6558 24.6782 13.667 24.6782 12.6172C24.6782 11.5674 24.8735 10.5827 25.2642 9.66309C25.6629 8.74349 26.2122 7.93376 26.9121 7.23389C27.612 6.53402 28.4217 5.98877 29.3413 5.59814C30.2609 5.19938 31.2497 5 32.3076 5C33.3574 5 34.3421 5.19938 35.2617 5.59814C36.1813 5.98877 36.987 6.53402 37.6787 7.23389C38.3786 7.93376 38.9238 8.74349 39.3145 9.66309C39.7132 10.5827 39.9126 11.5674 39.9126 12.6172C39.9126 13.667 39.7132 14.6558 39.3145 15.5835C38.9238 16.5031 38.3786 17.3128 37.6787 18.0127C36.987 18.7044 36.1813 19.2497 35.2617 19.6484C34.3421 20.0391 33.3574 20.2344 32.3076 20.2344ZM32.3076 18.1714C33.0726 18.1714 33.7887 18.029 34.4561 17.7441C35.1315 17.4593 35.7215 17.0646 36.2261 16.5601C36.7388 16.0474 37.1375 15.4533 37.4224 14.7778C37.7072 14.1024 37.8496 13.3822 37.8496 12.6172C37.8496 11.8522 37.7072 11.1361 37.4224 10.4688C37.1375 9.79329 36.7388 9.20329 36.2261 8.69873C35.7215 8.18604 35.1315 7.78727 34.4561 7.50244C33.7887 7.20947 33.0726 7.06299 32.3076 7.06299C31.5345 7.06299 30.8102 7.20947 30.1348 7.50244C29.4674 7.78727 28.8774 8.18604 28.3647 8.69873C27.8602 9.20329 27.4614 9.79329 27.1685 10.4688C26.8836 11.1361 26.7412 11.8522 26.7412 12.6172C26.7412 13.3822 26.8836 14.1024 27.1685 14.7778C27.4614 15.4451 27.8602 16.0352 28.3647 16.5479C28.8774 17.0524 29.4674 17.4512 30.1348 17.7441C30.8102 18.029 31.5345 18.1714 32.3076 18.1714ZM6.89258 11.1157V13.4595H4.65869C4.04834 13.4595 3.74316 13.1502 3.74316 12.5317V12.0312C3.74316 11.4209 4.04834 11.1157 4.65869 11.1157H6.89258ZM39.1069 13.4595V11.1157H41.353C41.9552 11.1157 42.2563 11.4209 42.2563 12.0312V12.5317C42.2563 13.1502 41.9552 13.4595 41.353 13.4595H39.1069ZM20.7231 13.0566V10.8472C21.0649 10.6844 21.4434 10.5705 21.8584 10.5054C22.2734 10.4321 22.6559 10.3955 23.0059 10.3955C23.3477 10.3955 23.7261 10.4321 24.1411 10.5054C24.5562 10.5705 24.9386 10.6844 25.2886 10.8472V13.0566C24.9793 12.8695 24.6213 12.7271 24.2144 12.6294C23.8075 12.5317 23.4046 12.4829 23.0059 12.4829C22.599 12.4829 22.1921 12.5317 21.7852 12.6294C21.3864 12.7271 21.0324 12.8695 20.7231 13.0566Z" fill="white"/>
</svg>
