<svg width="25" height="32" viewBox="0 0 25 32" fill="none" xmlns="http://www.w3.org/2000/svg">
<path d="M0.976562 6.96533C0.708008 6.96533 0.476074 6.87174 0.280762 6.68457C0.0935872 6.4974 0 6.26546 0 5.98877C0 5.71208 0.0935872 5.48014 0.280762 5.29297C0.476074 5.09766 0.708008 5 0.976562 5H14.5752C14.8519 5 15.0838 5.09766 15.271 5.29297C15.4663 5.48014 15.564 5.71208 15.564 5.98877C15.564 6.26546 15.4663 6.4974 15.271 6.68457C15.0838 6.87174 14.8519 6.96533 14.5752 6.96533H0.976562ZM18.3472 6.96533C18.0705 6.96533 17.8385 6.87174 17.6514 6.68457C17.4642 6.4974 17.3706 6.26546 17.3706 5.98877C17.3706 5.71208 17.4642 5.48014 17.6514 5.29297C17.8385 5.09766 18.0705 5 18.3472 5H23.5962C23.8729 5 24.1089 5.09766 24.3042 5.29297C24.4995 5.48014 24.5972 5.71208 24.5972 5.98877C24.5972 6.26546 24.4995 6.4974 24.3042 6.68457C24.1089 6.87174 23.8729 6.96533 23.5962 6.96533H18.3472ZM0.976562 13.3618C0.708008 13.3618 0.476074 13.2682 0.280762 13.0811C0.0935872 12.8857 0 12.6497 0 12.373C0 12.0964 0.0935872 11.8644 0.280762 11.6772C0.476074 11.4901 0.708008 11.3965 0.976562 11.3965H3.67432C3.95101 11.3965 4.18701 11.4901 4.38232 11.6772C4.57764 11.8644 4.67529 12.0964 4.67529 12.373C4.67529 12.6497 4.57764 12.8857 4.38232 13.0811C4.18701 13.2682 3.95101 13.3618 3.67432 13.3618H0.976562ZM7.4585 13.3618C7.1818 13.3618 6.94987 13.2682 6.7627 13.0811C6.57552 12.8857 6.48193 12.6497 6.48193 12.373C6.48193 12.0964 6.57552 11.8644 6.7627 11.6772C6.94987 11.4901 7.1818 11.3965 7.4585 11.3965H13.6353C13.9119 11.3965 14.1479 11.4901 14.3433 11.6772C14.5386 11.8644 14.6362 12.0964 14.6362 12.373C14.6362 12.6497 14.5386 12.8857 14.3433 13.0811C14.1479 13.2682 13.9119 13.3618 13.6353 13.3618H7.4585ZM17.4194 13.3618C17.1427 13.3618 16.9067 13.2682 16.7114 13.0811C16.5243 12.8857 16.4307 12.6497 16.4307 12.373C16.4307 12.0964 16.5243 11.8644 16.7114 11.6772C16.9067 11.4901 17.1427 11.3965 17.4194 11.3965H23.5962C23.8729 11.3965 24.1089 11.4901 24.3042 11.6772C24.4995 11.8644 24.5972 12.0964 24.5972 12.373C24.5972 12.6497 24.4995 12.8857 24.3042 13.0811C24.1089 13.2682 23.8729 13.3618 23.5962 13.3618H17.4194ZM0.98877 19.7095C0.720215 19.7095 0.488281 19.6159 0.292969 19.4287C0.0976562 19.2334 0 19.0015 0 18.7329C0 18.4562 0.0976562 18.2243 0.292969 18.0371C0.488281 17.8418 0.720215 17.7441 0.98877 17.7441H6.23779C6.51449 17.7441 6.74642 17.8418 6.93359 18.0371C7.12891 18.2243 7.22656 18.4562 7.22656 18.7329C7.22656 19.0015 7.12891 19.2334 6.93359 19.4287C6.74642 19.6159 6.51449 19.7095 6.23779 19.7095H0.98877ZM10.022 19.7095C9.74528 19.7095 9.50928 19.6159 9.31396 19.4287C9.11865 19.2334 9.021 19.0015 9.021 18.7329C9.021 18.4562 9.11865 18.2243 9.31396 18.0371C9.50928 17.8418 9.74528 17.7441 10.022 17.7441H23.6084C23.8851 17.7441 24.117 17.8418 24.3042 18.0371C24.4995 18.2243 24.5972 18.4562 24.5972 18.7329C24.5972 19.0015 24.4995 19.2334 24.3042 19.4287C24.117 19.6159 23.8851 19.7095 23.6084 19.7095H10.022ZM0.976562 26.1304C0.708008 26.1304 0.476074 26.0368 0.280762 25.8496C0.0935872 25.6624 0 25.4305 0 25.1538C0 24.8771 0.0935872 24.6411 0.280762 24.4458C0.476074 24.2586 0.708008 24.165 0.976562 24.165H13.916C14.1846 24.165 14.4165 24.2586 14.6118 24.4458C14.8071 24.6411 14.9048 24.8771 14.9048 25.1538C14.9048 25.4305 14.8071 25.6624 14.6118 25.8496C14.4165 26.0368 14.1846 26.1304 13.916 26.1304H0.976562Z" fill="white"/>
</svg>
