<svg width="27" height="17" viewBox="0 0 27 17" fill="none" xmlns="http://www.w3.org/2000/svg">
<path d="M23.5156 11.8164C25.3906 11.8164 26.9141 10.293 26.9141 8.4082C26.9141 6.52343 25.3906 5 23.5156 5C21.6211 5 20.0977 6.52343 20.0977 8.4082C20.0977 10.293 21.6211 11.8164 23.5156 11.8164ZM3.39844 11.8164C5.29297 11.8164 6.81641 10.293 6.81641 8.4082C6.81641 6.52343 5.29297 5 3.39844 5C1.52344 5 0 6.52343 0 8.4082C0 10.293 1.52344 11.8164 3.39844 11.8164ZM4.26758 9.19922H21.8652C22.2949 9.19922 22.6465 8.84765 22.6465 8.41797C22.6465 7.98828 22.2949 7.62695 21.8652 7.62695H4.26758C3.83789 7.62695 3.47656 7.98828 3.47656 8.41797C3.47656 8.84765 3.83789 9.19922 4.26758 9.19922Z" fill="white"/>
</svg>
