<svg width="25" height="32" viewBox="0 0 25 32" fill="none" xmlns="http://www.w3.org/2000/svg">
<path d="M0.976562 6.96533C0.708008 6.96533 0.476074 6.87174 0.280762 6.68457C0.0935872 6.4974 0 6.26546 0 5.98877C0 5.71208 0.0935872 5.48014 0.280762 5.29297C0.476074 5.09766 0.708008 5 0.976562 5H23.5962C23.8729 5 24.1089 5.09766 24.3042 5.29297C24.4995 5.48014 24.5972 5.71208 24.5972 5.98877C24.5972 6.26546 24.4995 6.4974 24.3042 6.68457C24.1089 6.87174 23.8729 6.96533 23.5962 6.96533H0.976562ZM0.976562 13.3618C0.708008 13.3618 0.476074 13.2682 0.280762 13.0811C0.0935872 12.8857 0 12.6497 0 12.373C0 12.0964 0.0935872 11.8644 0.280762 11.6772C0.476074 11.4901 0.708008 11.3965 0.976562 11.3965H14.5874C14.8641 11.3965 15.096 11.4901 15.2832 11.6772C15.4785 11.8644 15.5762 12.0964 15.5762 12.373C15.5762 12.6497 15.4785 12.8857 15.2832 13.0811C15.096 13.2682 14.8641 13.3618 14.5874 13.3618H0.976562ZM0.976562 19.7461C0.708008 19.7461 0.476074 19.6525 0.280762 19.4653C0.0935872 19.27 0 19.0381 0 18.7695C0 18.4928 0.0935872 18.2609 0.280762 18.0737C0.476074 17.8784 0.708008 17.7808 0.976562 17.7808H23.5962C23.8729 17.7808 24.1089 17.8784 24.3042 18.0737C24.4995 18.2609 24.5972 18.4928 24.5972 18.7695C24.5972 19.0381 24.4995 19.27 24.3042 19.4653C24.1089 19.6525 23.8729 19.7461 23.5962 19.7461H0.976562ZM0.976562 26.1304C0.708008 26.1304 0.476074 26.0368 0.280762 25.8496C0.0935872 25.6624 0 25.4305 0 25.1538C0 24.8771 0.0935872 24.6411 0.280762 24.4458C0.476074 24.2586 0.708008 24.165 0.976562 24.165H14.5874C14.8641 24.165 15.096 24.2586 15.2832 24.4458C15.4785 24.6411 15.5762 24.8771 15.5762 25.1538C15.5762 25.4305 15.4785 25.6624 15.2832 25.8496C15.096 26.0368 14.8641 26.1304 14.5874 26.1304H0.976562Z" fill="white"/>
</svg>
