<svg width="29" height="37" viewBox="0 0 29 37" fill="none" xmlns="http://www.w3.org/2000/svg">
<path d="M2.22245 9.73364C2.05278 10.0278 1.96534 10.4038 1.96534 10.8579V24.3461L5.61524 21.0507C6.11573 20.5868 6.64063 20.3671 7.17774 20.3671C7.76367 20.3671 8.3252 20.599 8.83789 21.0629L11.0962 23.1015L13.4727 20.9727L21.9454 29.4369H3.83301C1.29395 29.4369 0 28.1796 0 25.665V10.748C0 9.67656 0.23491 8.83116 0.703177 8.21589L2.22245 9.73364ZM28.7964 10.748V25.665C28.7964 26.7432 28.5608 27.5903 28.0886 28.2044L17.4916 17.6127C17.7923 17.4942 18.1066 17.4374 18.4449 17.4374C19.104 17.4374 19.7388 17.6938 20.2759 18.1943L26.8311 24.3418V10.8579C26.8311 9.58834 26.1353 8.92916 24.9268 8.92916H8.80368L6.83737 6.96382H24.9634C27.5147 6.96382 28.7964 8.23336 28.7964 10.748Z" fill="white"/>
<path d="M10.4635 17.9665C10.0585 18.1895 9.59567 18.3163 9.10645 18.3163C7.50733 18.3163 6.21338 17.0224 6.21338 15.4355C6.21338 14.9433 6.33979 14.4773 6.56244 14.0693L10.4635 17.9665Z" fill="white"/>
<path d="M26.0132 31.1459C26.3794 31.5121 26.9898 31.5243 27.3438 31.1459C27.71 30.7797 27.71 30.1816 27.3438 29.8153L2.79541 5.27925C2.4292 4.91304 1.81885 4.90084 1.45264 5.27925C1.08643 5.63326 1.08643 6.24361 1.45264 6.60982L26.0132 31.1459Z" fill="white"/>
</svg>
