<svg width="17" height="35" viewBox="0 0 17 35" fill="none" xmlns="http://www.w3.org/2000/svg">
<path d="M8.45947 29.7192C6.76676 29.7192 5.28564 29.3734 4.01611 28.6816C2.74658 27.998 1.75781 27.0378 1.0498 25.8008C0.349935 24.5557 0 23.1071 0 21.4551C0 20.6413 0.0895182 19.8397 0.268555 19.0503C0.447591 18.2609 0.667318 17.5163 0.927734 16.8164C1.18815 16.1165 1.43636 15.498 1.67236 14.9609C2.11182 13.9762 2.63265 12.9712 3.23486 11.9458C3.84521 10.9123 4.48812 9.88281 5.16357 8.85742C5.83903 7.83203 6.49007 6.83105 7.1167 5.85449C7.30387 5.5778 7.51139 5.36621 7.73926 5.21973C7.97526 5.07324 8.21533 5 8.45947 5C8.71175 5 8.95182 5.07324 9.17969 5.21973C9.40755 5.36621 9.61507 5.5778 9.80225 5.85449C10.437 6.83105 11.0881 7.83203 11.7554 8.85742C12.4308 9.88281 13.0737 10.9123 13.6841 11.9458C14.2944 12.9712 14.8153 13.9762 15.2466 14.9609C15.4826 15.498 15.7308 16.1165 15.9912 16.8164C16.2516 17.5163 16.4714 18.2609 16.6504 19.0503C16.8294 19.8397 16.9189 20.6413 16.9189 21.4551C16.9189 23.1071 16.5649 24.5557 15.8569 25.8008C15.1571 27.0378 14.1724 27.998 12.9028 28.6816C11.6333 29.3734 10.1522 29.7192 8.45947 29.7192Z" fill="white"/>
</svg>
