<svg width="46" height="33" viewBox="0 0 46 33" fill="none" xmlns="http://www.w3.org/2000/svg">
<path d="M10.8995 27.5224C10.7367 27.7503 10.5211 27.8642 10.2525 27.8642C9.99211 27.8642 9.78052 27.7503 9.61776 27.5224L7.17635 24.2631C6.92407 23.9213 6.86304 23.5877 6.99325 23.2622C7.12346 22.9366 7.39608 22.7739 7.81112 22.7739H9.55672V10.0786H7.81112C7.39608 10.0786 7.12346 9.9158 6.99325 9.59028C6.86304 9.26476 6.92407 8.9311 7.17635 8.5893L9.61776 5.31782C9.77238 5.10623 9.98397 5.00044 10.2525 5.00044C10.5211 4.9923 10.7367 5.09809 10.8995 5.31782L13.3409 8.5893C13.6013 8.9311 13.6664 9.26476 13.5362 9.59028C13.406 9.9158 13.1293 10.0786 12.7061 10.0786H10.9727V22.7739H12.7061C13.1375 22.7739 13.4101 22.9407 13.524 23.2744C13.6461 23.608 13.585 23.9376 13.3409 24.2631L10.8995 27.5224ZM18.5899 7.82026C18.3132 7.82026 18.0772 7.72667 17.8819 7.5395C17.6947 7.35232 17.6012 7.12039 17.6012 6.8437C17.6012 6.567 17.6947 6.33507 17.8819 6.1479C18.0772 5.95258 18.3132 5.85493 18.5899 5.85493H38.0846C38.3612 5.85493 38.5932 5.95258 38.7804 6.1479C38.9757 6.33507 39.0733 6.567 39.0733 6.8437C39.0733 7.12039 38.9757 7.35232 38.7804 7.5395C38.5932 7.72667 38.3612 7.82026 38.0846 7.82026H18.5899ZM18.5899 14.2167C18.3132 14.2167 18.0772 14.1232 17.8819 13.936C17.6947 13.7407 17.6012 13.5047 17.6012 13.228C17.6012 12.9513 17.6947 12.7193 17.8819 12.5322C18.0772 12.345 18.3132 12.2514 18.5899 12.2514H38.0846C38.3612 12.2514 38.5932 12.345 38.7804 12.5322C38.9757 12.7193 39.0733 12.9513 39.0733 13.228C39.0733 13.5047 38.9757 13.7407 38.7804 13.936C38.5932 14.1232 38.3612 14.2167 38.0846 14.2167H18.5899ZM18.5899 20.601C18.3132 20.601 18.0772 20.5074 17.8819 20.3203C17.6947 20.1249 17.6012 19.893 17.6012 19.6245C17.6012 19.3478 17.6947 19.1158 17.8819 18.9287C18.0772 18.7333 18.3132 18.6357 18.5899 18.6357H38.0846C38.3612 18.6357 38.5932 18.7333 38.7804 18.9287C38.9757 19.1158 39.0733 19.3478 39.0733 19.6245C39.0733 19.893 38.9757 20.1249 38.7804 20.3203C38.5932 20.5074 38.3612 20.601 38.0846 20.601H18.5899ZM18.5899 26.9853C18.3132 26.9853 18.0772 26.8917 17.8819 26.7045C17.6947 26.5174 17.6012 26.2854 17.6012 26.0087C17.6012 25.732 17.6947 25.496 17.8819 25.3007C18.0772 25.1136 18.3132 25.02 18.5899 25.02H29.0758C29.3525 25.02 29.5844 25.1136 29.7716 25.3007C29.9669 25.496 30.0645 25.732 30.0645 26.0087C30.0645 26.2854 29.9669 26.5174 29.7716 26.7045C29.5844 26.8917 29.3525 26.9853 29.0758 26.9853H18.5899Z" fill="white"/>
</svg>
