<svg width="26" height="36" viewBox="0 0 26 36" fill="none" xmlns="http://www.w3.org/2000/svg">
<path d="M13.0981 12.9438C13.8794 13.0821 14.5304 13.2856 15.0513 13.5541C15.5721 13.8145 16.0238 14.1401 16.4062 14.5307C17.3991 15.5154 18.0583 16.6018 18.3838 17.79C18.7093 18.97 18.7052 20.15 18.3716 21.33C18.0461 22.51 17.395 23.5883 16.4185 24.5649L12.2437 28.7519C11.2752 29.7203 10.201 30.3673 9.021 30.6928C7.84098 31.0264 6.6569 31.0305 5.46875 30.705C4.28874 30.3795 3.20231 29.7203 2.20947 28.7275C1.22477 27.7428 0.569661 26.6604 0.244141 25.4804C-0.0813802 24.2922 -0.0813802 23.1082 0.244141 21.9281C0.577799 20.7481 1.22884 19.6698 2.19727 18.6933L5.78613 15.1166C5.72103 15.5154 5.70882 15.9345 5.74951 16.3739C5.79834 16.8053 5.9082 17.2122 6.0791 17.5946L3.68652 19.9872C2.97852 20.6952 2.50651 21.4765 2.27051 22.331C2.03451 23.1855 2.03451 24.044 2.27051 24.9067C2.50651 25.7611 2.97852 26.5465 3.68652 27.2626C4.39453 27.9706 5.17578 28.4386 6.03027 28.6664C6.8929 28.9024 7.75146 28.9024 8.60596 28.6664C9.46045 28.4304 10.2417 27.9584 10.9497 27.2504L14.9414 23.2709C15.6494 22.5629 16.1174 21.7817 16.3452 20.9272C16.5812 20.0727 16.5812 19.2182 16.3452 18.3637C16.1092 17.5011 15.6372 16.7117 14.9292 15.9955C14.5304 15.5968 14.0544 15.2794 13.501 15.0434C12.9557 14.8074 12.2803 14.6568 11.4746 14.5917L13.0981 12.9438ZM12.793 23.0024C12.0117 22.864 11.3607 22.6646 10.8398 22.4042C10.319 22.1357 9.86735 21.8061 9.48486 21.4154C8.49202 20.4307 7.83285 19.3484 7.50732 18.1684C7.1818 16.9802 7.1818 15.7961 7.50732 14.6161C7.84098 13.4361 8.49609 12.3578 9.47266 11.3813L13.6353 7.20646C14.6118 6.2299 15.6901 5.57885 16.8701 5.25333C18.0501 4.91967 19.2301 4.91561 20.4102 5.24113C21.5983 5.56665 22.6888 6.22583 23.6816 7.21867C24.6663 8.20337 25.3215 9.28979 25.647 10.4779C25.9725 11.658 25.9684 12.838 25.6348 14.018C25.3092 15.198 24.6623 16.2763 23.6938 17.2528L20.105 20.8295C20.1701 20.4307 20.1782 20.0157 20.1294 19.5844C20.0887 19.1531 19.9829 18.7421 19.812 18.3515L22.2046 15.9589C22.9126 15.2509 23.3846 14.4696 23.6206 13.6152C23.8566 12.7607 23.8566 11.9062 23.6206 11.0517C23.3846 10.189 22.9126 9.40372 22.2046 8.69572C21.4884 7.97957 20.7031 7.50757 19.8486 7.2797C18.9941 7.0437 18.1396 7.0437 17.2852 7.2797C16.4307 7.5157 15.6453 7.98771 14.9292 8.69572L10.9497 12.6752C10.2417 13.3832 9.76969 14.1645 9.53369 15.019C9.29769 15.8735 9.29769 16.732 9.53369 17.5946C9.76969 18.4491 10.2458 19.2345 10.9619 19.9506C11.3607 20.3494 11.8327 20.6667 12.3779 20.9027C12.9313 21.1388 13.6108 21.2893 14.4165 21.3544L12.793 23.0024Z" fill="white"/>
</svg>
