<svg width="17" height="35" viewBox="0 0 17 35" fill="none" xmlns="http://www.w3.org/2000/svg">
<path d="M8.61816 28.0225C7.12891 28.0225 5.89193 27.7539 4.90723 27.2168C3.93066 26.6797 3.17383 25.9839 2.63672 25.1294C2.10775 24.2668 1.77002 23.335 1.62354 22.334C1.47705 21.333 1.49333 20.3646 1.67236 19.4287C1.96533 19.3473 2.23796 19.2904 2.49023 19.2578C2.75065 19.2253 3.00293 19.209 3.24707 19.209C3.9388 19.209 4.54508 19.2944 5.06592 19.4653C5.59489 19.6362 6.0791 19.8478 6.51855 20.1001C6.96615 20.3524 7.40967 20.6047 7.84912 20.8569C8.28857 21.1011 8.76058 21.3086 9.26514 21.4795C9.76969 21.6504 10.3516 21.7358 11.0107 21.7358C11.7432 21.7358 12.3739 21.6178 12.9028 21.3818C13.4399 21.1458 13.9119 20.8651 14.3188 20.5396C14.7339 20.214 15.1204 19.9251 15.4785 19.6729C15.5273 20.2181 15.507 20.8569 15.4175 21.5894C15.3361 22.3136 15.1571 23.0501 14.8804 23.7988C14.6037 24.5475 14.2008 25.2433 13.6719 25.8862C13.1429 26.521 12.4634 27.0337 11.6333 27.4243C10.8114 27.8231 9.80632 28.0225 8.61816 28.0225ZM8.45947 29.7192C6.76676 29.7192 5.28564 29.3734 4.01611 28.6816C2.74658 27.998 1.75781 27.0378 1.0498 25.8008C0.349935 24.5557 0 23.1071 0 21.4551C0 20.6413 0.0895182 19.8397 0.268555 19.0503C0.447591 18.2609 0.667318 17.5163 0.927734 16.8164C1.18815 16.1165 1.43636 15.498 1.67236 14.9609C2.3234 13.488 3.12093 11.9743 4.06494 10.4199C5.00895 8.86556 5.92448 7.40072 6.81152 6.02539C7.03125 5.69987 7.27132 5.44759 7.53174 5.26855C7.79215 5.08952 8.1014 5 8.45947 5C8.81755 5 9.12679 5.08952 9.38721 5.26855C9.65576 5.44759 9.89583 5.69987 10.1074 6.02539C11.0026 7.40072 11.9181 8.86556 12.854 10.4199C13.798 11.9743 14.5955 13.488 15.2466 14.9609C15.4826 15.498 15.7308 16.1165 15.9912 16.8164C16.2516 17.5163 16.4714 18.2609 16.6504 19.0503C16.8294 19.8397 16.9189 20.6413 16.9189 21.4551C16.9189 23.1071 16.5649 24.5557 15.8569 25.8008C15.1571 27.0378 14.1724 27.998 12.9028 28.6816C11.6333 29.3734 10.1522 29.7192 8.45947 29.7192ZM8.45947 27.7173C9.75342 27.7173 10.8846 27.4569 11.853 26.936C12.8215 26.4152 13.5742 25.6868 14.1113 24.751C14.6566 23.807 14.9292 22.7083 14.9292 21.4551C14.9292 20.4541 14.7664 19.4816 14.4409 18.5376C14.1235 17.5854 13.7939 16.7106 13.4521 15.9131C12.7848 14.3099 12.0199 12.8288 11.1572 11.4697C10.2946 10.1107 9.4401 8.78825 8.59375 7.50244C8.5612 7.43734 8.52051 7.40479 8.47168 7.40479C8.42285 7.40479 8.37809 7.43734 8.3374 7.50244C7.48291 8.78825 6.62435 10.1147 5.76172 11.4819C4.90723 12.841 4.13818 14.3221 3.45459 15.9253C3.11279 16.7147 2.7832 17.5854 2.46582 18.5376C2.15658 19.4816 2.00195 20.4541 2.00195 21.4551C2.00195 22.7083 2.27051 23.807 2.80762 24.751C3.34473 25.6868 4.09749 26.4152 5.06592 26.936C6.03434 27.4569 7.16553 27.7173 8.45947 27.7173Z" fill="white"/>
</svg>
