<svg width="26" height="36" viewBox="0 0 26 36" fill="none" xmlns="http://www.w3.org/2000/svg">
<path d="M5.98145 25.7893C5.6722 25.9276 5.37109 25.9764 5.07812 25.9357C4.78516 25.8869 4.52474 25.7486 4.29688 25.5207L2.56348 23.7751C2.32747 23.5391 2.18913 23.2787 2.14844 22.9938C2.11589 22.7009 2.16471 22.3998 2.29492 22.0905L4.00391 18.0378C4.06901 17.8913 4.13005 17.7774 4.18701 17.696C4.25212 17.6065 4.32943 17.517 4.41895 17.4274L16.1133 5.83076C16.6829 5.26109 17.2852 4.9844 17.9199 5.00068C18.5628 5.00882 19.1772 5.30178 19.7632 5.87958L22.3267 8.46747C22.9045 9.05341 23.1934 9.66376 23.1934 10.2985C23.2015 10.9333 22.9207 11.5355 22.3511 12.1052L10.6689 23.7141C10.5713 23.8036 10.4777 23.8809 10.3882 23.946C10.3068 24.003 10.1888 24.0599 10.0342 24.1169L5.98145 25.7893ZM5.79834 23.8972L9.35059 22.4201L20.9839 10.8723C21.3582 10.506 21.3704 10.1439 21.0205 9.78583L18.4448 7.18574C18.2821 7.01484 18.103 6.93346 17.9077 6.9416C17.7124 6.94973 17.5252 7.03925 17.3462 7.21015L5.71289 18.758L4.19922 22.298C4.15039 22.412 4.13005 22.5218 4.13818 22.6276C4.14632 22.7253 4.20736 22.827 4.32129 22.9328L5.15137 23.7629C5.2653 23.8768 5.37109 23.9379 5.46875 23.946C5.56641 23.9541 5.67627 23.9379 5.79834 23.8972ZM1.2207 26.3996C0.952148 26.3996 0.78125 26.306 0.708008 26.1188C0.634766 25.9235 0.687663 25.7282 0.866699 25.5329L2.84424 23.4455L4.60205 25.2399L3.45459 26.1188C3.32438 26.2328 3.20638 26.3101 3.10059 26.3508C3.00293 26.3833 2.86865 26.3996 2.69775 26.3996H1.2207ZM4.60205 18.7458L5.74951 17.5983L10.7422 22.6276L9.59473 23.7751L4.60205 18.7458ZM14.7339 8.69941L15.8813 7.56415L20.874 12.5935L19.7266 13.7165L14.7339 8.69941ZM0.976562 30.7575C0.708008 30.7575 0.476074 30.6599 0.280762 30.4645C0.0935872 30.2692 0 30.0373 0 29.7687C0 29.5002 0.0935872 29.2683 0.280762 29.0729C0.476074 28.8858 0.708008 28.7922 0.976562 28.7922H24.3042C24.5728 28.7922 24.8047 28.8858 25 29.0729C25.1953 29.2683 25.293 29.5002 25.293 29.7687C25.293 30.0373 25.1953 30.2692 25 30.4645C24.8047 30.6599 24.5728 30.7575 24.3042 30.7575H0.976562Z" fill="white"/>
</svg>
