<svg width="25" height="35" viewBox="0 0 25 35" fill="none" xmlns="http://www.w3.org/2000/svg">
<path d="M12.4634 5.61035V6.66016H9.41162C9.90804 6.45671 10.4085 6.26953 10.9131 6.09863C11.4258 5.9196 11.9425 5.75684 12.4634 5.61035ZM12.4634 7.52686V8.79639H6.16455C6.24593 8.56852 6.33138 8.3488 6.4209 8.13721C6.51042 7.92562 6.604 7.72217 6.70166 7.52686H12.4634ZM12.4634 10.1514V11.4087H3.43018C3.47087 11.1971 3.51562 10.9855 3.56445 10.7739C3.61328 10.5623 3.66618 10.3548 3.72314 10.1514H12.4634ZM12.4634 12.7637V14.0332H1.51367C1.52995 13.8216 1.55029 13.61 1.57471 13.3984C1.59912 13.1868 1.6276 12.9753 1.66016 12.7637H12.4634ZM12.4634 15.3882V16.6455H1.42822C1.43636 16.4339 1.4445 16.2264 1.45264 16.0229C1.46077 15.8114 1.46891 15.5998 1.47705 15.3882H12.4634ZM12.4634 18.0005V19.27H1.47705C1.46891 19.0584 1.46077 18.8509 1.45264 18.6475C1.4445 18.4359 1.43636 18.2202 1.42822 18.0005H12.4634ZM12.4634 20.625V21.8945H1.66016C1.6276 21.6829 1.59912 21.4714 1.57471 21.2598C1.55029 21.0482 1.52995 20.8366 1.51367 20.625H12.4634ZM12.4634 23.2495V24.5068H3.72314C3.66618 24.3034 3.61328 24.0959 3.56445 23.8843C3.51562 23.6727 3.47087 23.4611 3.43018 23.2495H12.4634ZM12.4634 26.106V27.3755H6.70166C6.604 27.172 6.51042 26.9645 6.4209 26.7529C6.33138 26.5495 6.24593 26.3338 6.16455 26.106H12.4634ZM12.4634 28.2422V29.2798C11.9425 29.1414 11.4258 28.9827 10.9131 28.8037C10.4085 28.6328 9.90804 28.4456 9.41162 28.2422H12.4634ZM12.4512 29.9023C10.734 29.9023 9.12272 29.5768 7.61719 28.9258C6.11165 28.2829 4.78923 27.3918 3.6499 26.2524C2.51058 25.1131 1.6154 23.7907 0.964355 22.2852C0.321452 20.7796 0 19.1683 0 17.4512C0 15.734 0.321452 14.1227 0.964355 12.6172C1.6154 11.1117 2.51058 9.78923 3.6499 8.6499C4.78923 7.50244 6.11165 6.60726 7.61719 5.96436C9.12272 5.32145 10.734 5 12.4512 5C14.1683 5 15.7796 5.32145 17.2852 5.96436C18.7907 6.60726 20.1131 7.50244 21.2524 8.6499C22.3918 9.78923 23.2829 11.1117 23.9258 12.6172C24.5768 14.1227 24.9023 15.734 24.9023 17.4512C24.9023 19.1683 24.5768 20.7796 23.9258 22.2852C23.2829 23.7907 22.3918 25.1131 21.2524 26.2524C20.1131 27.3918 18.7907 28.2829 17.2852 28.9258C15.7796 29.5768 14.1683 29.9023 12.4512 29.9023ZM12.4512 27.8271C13.8835 27.8271 15.2262 27.5586 16.4795 27.0215C17.7327 26.4844 18.8354 25.7397 19.7876 24.7876C20.7397 23.8354 21.4844 22.7327 22.0215 21.4795C22.5586 20.2262 22.8271 18.8835 22.8271 17.4512C22.8271 16.0189 22.5586 14.6761 22.0215 13.4229C21.4844 12.1615 20.7397 11.0588 19.7876 10.1147C18.8354 9.1626 17.7327 8.41797 16.4795 7.88086C15.2262 7.34375 13.8835 7.0752 12.4512 7.0752C11.0189 7.0752 9.67611 7.34375 8.42285 7.88086C7.1696 8.41797 6.06689 9.1626 5.11475 10.1147C4.1626 11.0588 3.41797 12.1615 2.88086 13.4229C2.34375 14.6761 2.0752 16.0189 2.0752 17.4512C2.0752 18.8835 2.34375 20.2262 2.88086 21.4795C3.41797 22.7327 4.1626 23.8354 5.11475 24.7876C6.06689 25.7397 7.1696 26.4844 8.42285 27.0215C9.67611 27.5586 11.0189 27.8271 12.4512 27.8271Z" fill="white"/>
</svg>
