<svg width="23" height="34" viewBox="0 0 23 34" fill="none" xmlns="http://www.w3.org/2000/svg">
<path d="M4.91943 20.7227C4.08936 20.7227 3.4668 20.5111 3.05176 20.0879C2.63672 19.6566 2.4292 19.0015 2.4292 18.1226V13.4473C2.4292 13.0892 2.46582 12.7718 2.53906 12.4951C2.6123 12.2184 2.72217 11.9824 2.86865 11.7871L4.3335 13.252V18.2812C4.3335 18.5091 4.38639 18.6759 4.49219 18.7817C4.60612 18.8875 4.77702 18.9404 5.00488 18.9404H8.95996C9.11458 18.9404 9.24072 18.9567 9.33838 18.9893C9.43604 19.0218 9.5459 19.0951 9.66797 19.209L15.564 24.4946L16.98 25.8984C16.8416 26.11 16.6748 26.2687 16.4795 26.3745C16.2842 26.4803 16.0685 26.5332 15.8325 26.5332C15.5396 26.5332 15.271 26.4681 15.0269 26.3379C14.7827 26.2158 14.5101 26.0246 14.209 25.7642L8.70361 20.8325C8.62223 20.7593 8.52458 20.7227 8.41064 20.7227H4.91943ZM17.2119 18.9282L15.3076 17.0239V7.64893C15.3076 7.53499 15.2547 7.47803 15.1489 7.47803C15.1082 7.47803 15.0716 7.48617 15.0391 7.50244C15.0065 7.51872 14.974 7.54313 14.9414 7.57568L10.1807 11.897L8.87451 10.5786L14.209 5.84229C14.5345 5.55745 14.8071 5.34587 15.0269 5.20752C15.2547 5.06917 15.5151 5 15.8081 5C16.215 5 16.5487 5.14242 16.8091 5.42725C17.0776 5.70394 17.2119 6.04167 17.2119 6.44043V18.9282ZM21.1914 27.8149L0.268555 6.9165C0.0895182 6.73747 0 6.51774 0 6.25732C0 5.98877 0.0895182 5.76497 0.268555 5.58594C0.455729 5.39876 0.679525 5.30924 0.939941 5.31738C1.20036 5.31738 1.42415 5.4069 1.61133 5.58594L22.5098 26.4844C22.6969 26.6715 22.7905 26.8913 22.7905 27.1436C22.7905 27.404 22.6969 27.6278 22.5098 27.8149C22.3389 28.0021 22.1191 28.0957 21.8506 28.0957C21.5902 28.0957 21.3704 28.0021 21.1914 27.8149Z" fill="white"/>
</svg>
