<svg width="46" height="25" viewBox="0 0 46 25" fill="none" xmlns="http://www.w3.org/2000/svg">
<path d="M23.1099 21.0298C22.7925 21.0298 22.5402 20.9443 22.353 20.7734C22.174 20.5944 22.0845 20.3503 22.0845 20.041C22.0845 19.8538 22.1292 19.6341 22.2188 19.3818L27.9438 4.11084C28.2124 3.37028 28.7251 3 29.4819 3C29.8726 3 30.194 3.09359 30.4463 3.28076C30.6986 3.46794 30.8979 3.7487 31.0444 4.12305L36.7695 19.3696C36.859 19.6219 36.9038 19.8416 36.9038 20.0288C36.9038 20.3381 36.8062 20.5822 36.6108 20.7612C36.4237 20.9403 36.1673 21.0298 35.8418 21.0298C35.5244 21.0298 35.2762 20.9606 35.0972 20.8223C34.9181 20.6839 34.7716 20.4438 34.6577 20.1021L33.083 15.793H25.8809L24.3062 20.1021C24.1922 20.4438 24.0457 20.6839 23.8667 20.8223C23.6877 20.9606 23.4354 21.0298 23.1099 21.0298ZM26.479 13.9375H32.4727L29.5063 5.72217H29.4453L26.479 13.9375ZM10.1094 21.0298C9.80013 21.0298 9.55192 20.9484 9.36475 20.7856C9.18571 20.6147 9.09619 20.3869 9.09619 20.1021C9.09619 19.98 9.10433 19.8579 9.12061 19.7358C9.14502 19.6056 9.18164 19.4836 9.23047 19.3696L13.0269 9.28662C13.1733 8.896 13.3727 8.61117 13.625 8.43213C13.8773 8.24495 14.1784 8.15137 14.5283 8.15137C14.8864 8.15137 15.1916 8.24902 15.4438 8.44434C15.7043 8.63151 15.9036 8.91227 16.042 9.28662L19.8384 19.3696C19.8872 19.4998 19.9238 19.626 19.9482 19.748C19.9808 19.862 19.9971 19.98 19.9971 20.1021C19.9971 20.3787 19.9035 20.6025 19.7163 20.7734C19.5291 20.9443 19.2809 21.0298 18.9717 21.0298C18.7194 21.0298 18.5078 20.9647 18.3369 20.8345C18.166 20.7043 18.0317 20.4845 17.9341 20.1753L16.9209 17.1846H12.1479L11.1348 20.1753C11.0371 20.4764 10.9028 20.6961 10.7319 20.8345C10.5692 20.9647 10.3617 21.0298 10.1094 21.0298ZM12.6851 15.5977H16.3838L14.6748 10.5073H14.394L12.6851 15.5977Z" fill="white"/>
</svg>
