<svg width="14" height="14" viewBox="0 0 14 14" fill="none" xmlns="http://www.w3.org/2000/svg">
<path d="M0 3.95508V0.673828C0 0.473633 0.0585938 0.3125 0.175781 0.19043C0.297852 0.0634766 0.461426 0 0.666504 0H3.95508C4.16992 0 4.32861 0.0634766 4.43115 0.19043C4.53857 0.3125 4.58496 0.458984 4.57031 0.629883C4.56055 0.800781 4.48486 0.957031 4.34326 1.09863L1.09863 4.34326C0.961914 4.48486 0.808105 4.56299 0.637207 4.57764C0.466309 4.5874 0.317383 4.54102 0.19043 4.43848C0.0634766 4.33105 0 4.16992 0 3.95508ZM1.88965 2.8125L2.81982 1.88965L12.0996 11.1841L11.1694 12.0996L1.88965 2.8125ZM13.9966 10.0415V13.3228C13.9966 13.5181 13.9355 13.6792 13.8135 13.8062C13.6963 13.9331 13.5352 13.9966 13.3301 13.9966H10.0415C9.82666 13.9966 9.66553 13.9331 9.55811 13.8062C9.45557 13.6792 9.40918 13.5303 9.41895 13.3594C9.43359 13.1885 9.50928 13.0322 9.646 12.8906L12.8906 9.646C13.0322 9.50928 13.1885 9.43604 13.3594 9.42627C13.5303 9.41162 13.6792 9.45801 13.8062 9.56543C13.9331 9.66797 13.9966 9.82666 13.9966 10.0415ZM13.9966 3.95508C13.9966 4.16992 13.9331 4.33105 13.8062 4.43848C13.6792 4.54102 13.5303 4.5874 13.3594 4.57764C13.1885 4.56299 13.0322 4.48486 12.8906 4.34326L9.646 1.09863C9.50928 0.957031 9.43359 0.800781 9.41895 0.629883C9.40918 0.458984 9.45557 0.3125 9.55811 0.19043C9.66553 0.0634766 9.82666 0 10.0415 0H13.3301C13.5352 0 13.6963 0.0634766 13.8135 0.19043C13.9355 0.3125 13.9966 0.473633 13.9966 0.673828V3.95508ZM2.81982 12.0996L1.88965 11.1768L11.1768 1.88965L12.1069 2.8125L2.81982 12.0996ZM0 10.0415C0 9.82666 0.0634766 9.66797 0.19043 9.56543C0.317383 9.45801 0.466309 9.41162 0.637207 9.42627C0.808105 9.43604 0.961914 9.50928 1.09863 9.646L4.34326 12.8906C4.48486 13.0322 4.56055 13.1885 4.57031 13.3594C4.58496 13.5303 4.53857 13.6792 4.43115 13.8062C4.32861 13.9331 4.16992 13.9966 3.95508 13.9966H0.666504C0.461426 13.9966 0.297852 13.9331 0.175781 13.8062C0.0585938 13.6792 0 13.5181 0 13.3228V10.0415Z" fill="white"/>
</svg>
